<svg width="12" height="12" viewBox="0 0 12 12" fill="none" xmlns="http://www.w3.org/2000/svg">
<path d="M5.75 1.72595C3.28596 1.72595 1.28125 3.73066 1.28125 6.1947C1.28125 8.65874 3.28596 10.6635 5.75 10.6635C8.21404 10.6635 10.2187 8.65874 10.2187 6.1947C10.2187 3.73066 8.21404 1.72595 5.75 1.72595ZM4.67105 4.23576C4.94326 3.94722 5.32633 3.78845 5.75 3.78845C6.17367 3.78845 6.5533 3.9483 6.82658 4.23833C7.10351 4.53224 7.23822 4.92712 7.20643 5.35165C7.14283 6.1947 6.48971 6.8822 5.75 6.8822C5.01029 6.8822 4.35588 6.1947 4.29357 5.35144C4.26199 4.92347 4.39648 4.5273 4.67105 4.23576ZM5.75 9.97595C5.24522 9.97628 4.74551 9.87525 4.2805 9.67884C3.8155 9.48243 3.39467 9.19465 3.04297 8.83255C3.2444 8.5453 3.50105 8.30106 3.79793 8.11412C4.34557 7.76306 5.03865 7.5697 5.75 7.5697C6.46135 7.5697 7.15443 7.76306 7.70143 8.11412C7.99855 8.30098 8.25543 8.54522 8.45703 8.83255C8.10536 9.19469 7.68454 9.4825 7.21953 9.67891C6.75451 9.87532 6.25479 9.97633 5.75 9.97595Z" fill="white"/>
</svg>
