<svg width="44" height="44" viewBox="0 0 44 44" fill="none" xmlns="http://www.w3.org/2000/svg">
<path d="M15.3333 27H28.6667C29.125 27 29.5 26.625 29.5 26.1667C29.5 25.7083 29.125 25.3333 28.6667 25.3333H15.3333C14.875 25.3333 14.5 25.7083 14.5 26.1667C14.5 26.625 14.875 27 15.3333 27ZM15.3333 22.8333H28.6667C29.125 22.8333 29.5 22.4583 29.5 22C29.5 21.5417 29.125 21.1667 28.6667 21.1667H15.3333C14.875 21.1667 14.5 21.5417 14.5 22C14.5 22.4583 14.875 22.8333 15.3333 22.8333ZM14.5 17.8333C14.5 18.2917 14.875 18.6667 15.3333 18.6667H28.6667C29.125 18.6667 29.5 18.2917 29.5 17.8333C29.5 17.375 29.125 17 28.6667 17H15.3333C14.875 17 14.5 17.375 14.5 17.8333Z" fill="#262626"/>
</svg>
