<svg width="16" height="16" viewBox="0 0 16 16" fill="none" xmlns="http://www.w3.org/2000/svg">
<path d="M14.2563 4.0313C14.2226 3.96565 14.1738 3.9089 14.1139 3.86568C14.0541 3.82245 13.9849 3.79397 13.912 3.78254C13.8391 3.77112 13.7645 3.77708 13.6943 3.79995C13.6241 3.82281 13.5603 3.86192 13.5081 3.91411L11.7081 5.71528C11.6197 5.80236 11.5006 5.85117 11.3766 5.85117C11.2525 5.85117 11.1334 5.80236 11.0451 5.71528L10.267 4.93598C10.2234 4.89245 10.1889 4.84078 10.1653 4.7839C10.1418 4.72702 10.1296 4.66606 10.1296 4.60449C10.1296 4.54292 10.1418 4.48196 10.1653 4.42508C10.1889 4.3682 10.2234 4.31652 10.267 4.273L12.0593 2.48032C12.1131 2.4266 12.1529 2.36061 12.1755 2.28806C12.1981 2.21551 12.2027 2.13855 12.1889 2.06383C12.1751 1.98911 12.1434 1.91885 12.0964 1.85912C12.0494 1.79939 11.9887 1.75197 11.9193 1.72095C10.5655 1.11567 8.87566 1.43149 7.81013 2.48911C6.90486 3.38794 6.63503 4.79243 7.07038 6.34253C7.09386 6.42519 7.09399 6.51273 7.07077 6.59547C7.04756 6.6782 7.00189 6.75289 6.93884 6.81128L2.0615 11.2659C1.87149 11.4365 1.71823 11.644 1.61107 11.8758C1.5039 12.1075 1.44508 12.3587 1.43819 12.614C1.43129 12.8693 1.47647 13.1232 1.57098 13.3605C1.66548 13.5977 1.80732 13.8132 1.98784 13.9938C2.16836 14.1744 2.38379 14.3163 2.62097 14.4109C2.85816 14.5055 3.11213 14.5508 3.36739 14.5441C3.62266 14.5373 3.87387 14.4786 4.1057 14.3715C4.33753 14.2644 4.54511 14.1113 4.71579 13.9213L9.21814 9.03315C9.27568 8.97091 9.34911 8.92555 9.43052 8.90196C9.51194 8.87836 9.59824 8.87743 9.68015 8.89926C10.1215 9.02018 10.5767 9.08292 11.0342 9.08588C12.0128 9.08588 12.8715 8.76919 13.4908 8.15893C14.6378 7.02895 14.8127 5.11235 14.2563 4.0313ZM3.41472 13.6005C3.22177 13.6216 3.02704 13.5822 2.85741 13.4879C2.68777 13.3936 2.55159 13.249 2.46767 13.0739C2.38374 12.8989 2.3562 12.7022 2.38886 12.5108C2.42151 12.3195 2.51274 12.143 2.64996 12.0058C2.78719 11.8685 2.96363 11.7772 3.15495 11.7445C3.34627 11.7118 3.54302 11.7392 3.71807 11.8231C3.89311 11.907 4.03781 12.0431 4.13219 12.2127C4.22657 12.3823 4.26599 12.577 4.24499 12.77C4.2219 12.9823 4.12701 13.1803 3.97602 13.3314C3.82504 13.4824 3.62702 13.5774 3.41472 13.6005Z" fill="#0075FF"/>
</svg>
