<svg width="12" height="12" viewBox="0 0 12 12" fill="none" xmlns="http://www.w3.org/2000/svg">
<path d="M5.43623 4.28716C5.43623 4.56646 5.43623 4.83716 5.52432 5.09068C4.59834 6.17778 2.15342 9.05025 1.92568 9.26939C1.88042 9.31 1.84421 9.35968 1.81941 9.4152C1.79461 9.47072 1.78178 9.53084 1.78174 9.59165C1.78174 9.77427 1.89346 9.95044 1.98799 10.0493C2.12979 10.1975 2.73564 10.7583 2.84736 10.6508C3.17822 10.3286 3.24482 10.2426 3.38018 10.1094C3.58428 9.90962 3.35869 9.50142 3.42959 9.33599C3.50049 9.17056 3.57568 9.13833 3.69814 9.11255C3.82061 9.08677 4.0376 9.17485 4.20732 9.177C4.38564 9.17915 4.48232 9.10396 4.61553 8.97935C4.72295 8.88052 4.80029 8.78814 4.80244 8.64419C4.80674 8.45083 4.52744 8.19517 4.73584 7.99107C4.94424 7.78696 5.24502 8.12427 5.46631 8.09849C5.6876 8.07271 5.95615 7.76548 5.98408 7.63443C6.01201 7.50337 5.73271 7.16607 5.77568 6.97485C5.79072 6.9104 5.92178 6.76001 6.02061 6.73853C6.11943 6.71704 6.55771 6.88677 6.65654 6.86528C6.77685 6.8395 6.9165 6.71275 7.03037 6.64185C7.36338 6.78579 7.66631 6.8438 8.05518 6.8438C9.52685 6.8438 10.7192 5.69654 10.7192 4.28286C10.7192 2.86919 9.52685 1.72687 8.05518 1.72687C6.5835 1.72687 5.43623 2.87349 5.43623 4.28716ZM9.34424 3.78937C9.34424 3.92534 9.30392 4.05826 9.22837 4.17132C9.15283 4.28438 9.04546 4.3725 8.91983 4.42453C8.79421 4.47657 8.65597 4.49018 8.52261 4.46366C8.38925 4.43713 8.26675 4.37165 8.1706 4.2755C8.07445 4.17935 8.00898 4.05685 7.98245 3.92349C7.95592 3.79013 7.96954 3.6519 8.02157 3.52627C8.07361 3.40065 8.16172 3.29328 8.27478 3.21773C8.38784 3.14219 8.52076 3.10187 8.65674 3.10187C8.83907 3.10187 9.01394 3.1743 9.14287 3.30323C9.2718 3.43216 9.34424 3.60703 9.34424 3.78937Z" fill="white"/>
</svg>
