<svg width="16" height="16" viewBox="0 0 16 16" fill="none" xmlns="http://www.w3.org/2000/svg">
<path d="M14.4933 1.62154C14.4879 1.59562 14.4753 1.57178 14.4569 1.55278C14.4384 1.53379 14.415 1.52045 14.3892 1.51431C12.6733 1.09478 8.70859 2.5898 6.56054 4.73696C6.17742 5.11699 5.82815 5.52968 5.5167 5.97036C4.85429 5.91177 4.19189 5.96069 3.62734 6.20679C2.03447 6.90786 1.5707 8.73716 1.4415 9.52407C1.43417 9.56714 1.43694 9.61133 1.44958 9.65315C1.46222 9.69497 1.48439 9.73329 1.51434 9.76509C1.5443 9.79689 1.58123 9.82131 1.62222 9.83643C1.66321 9.85154 1.70715 9.85694 1.75058 9.8522L4.30849 9.57007C4.31032 9.76292 4.32196 9.95555 4.34336 10.1472C4.35623 10.2803 4.41531 10.4047 4.51035 10.4988L5.50087 11.487C5.59503 11.5819 5.71938 11.6409 5.85244 11.654C6.04303 11.6753 6.23459 11.6869 6.42636 11.6888L6.1457 14.2435C6.14102 14.2869 6.14646 14.3308 6.16159 14.3718C6.17673 14.4128 6.20115 14.4497 6.23294 14.4796C6.26472 14.5095 6.30302 14.5317 6.34481 14.5444C6.3866 14.557 6.43076 14.5598 6.47382 14.5526C7.25927 14.4266 9.09179 13.9628 9.78876 12.37C10.0349 11.8054 10.0852 11.1462 10.0284 10.4871C10.4702 10.1756 10.8839 9.82622 11.265 9.44292C13.4198 7.29897 14.9063 3.42271 14.4933 1.62154ZM9.11523 6.8853C8.91847 6.68867 8.78445 6.4381 8.73011 6.16529C8.67578 5.89248 8.70357 5.60968 8.80998 5.35267C8.91639 5.09566 9.09663 4.87598 9.3279 4.72142C9.55918 4.56686 9.8311 4.48436 10.1093 4.48436C10.3874 4.48436 10.6594 4.56686 10.8906 4.72142C11.1219 4.87598 11.3022 5.09566 11.4086 5.35267C11.515 5.60968 11.5428 5.89248 11.4884 6.16529C11.4341 6.4381 11.3001 6.68867 11.1033 6.8853C10.9728 7.01596 10.8179 7.11962 10.6473 7.19034C10.4768 7.26106 10.2939 7.29746 10.1093 7.29746C9.92462 7.29746 9.74179 7.26106 9.57122 7.19034C9.40065 7.11962 9.2457 7.01596 9.11523 6.8853Z" fill="#0075FF"/>
<path d="M5.43359 12.2028C5.27305 12.3636 5.01553 12.4263 4.70557 12.4799C4.00918 12.5986 3.39424 11.9968 3.51934 11.2928C3.56709 11.0259 3.7083 10.6518 3.79619 10.5639C3.8154 10.5451 3.82819 10.5207 3.83274 10.4941C3.83728 10.4676 3.83336 10.4403 3.82152 10.4162C3.80968 10.392 3.79053 10.3722 3.76679 10.3595C3.74305 10.3469 3.71592 10.342 3.68926 10.3457C3.29983 10.3933 2.93754 10.5699 2.66006 10.8472C1.97129 11.5366 1.90625 14.0945 1.90625 14.0945C1.90625 14.0945 4.46562 14.0294 5.15439 13.3401C5.43261 13.0628 5.60939 12.7 5.65625 12.31C5.66709 12.1875 5.51797 12.1146 5.43359 12.2028Z" fill="#0075FF"/>
</svg>
